<svg width="26" height="26" viewBox="0 0 26 26" fill="none" xmlns="http://www.w3.org/2000/svg">
<path d="M18.3957 0.0492554H6.82781C3.06293 0.0492554 6.10352e-05 3.11212 6.10352e-05 6.87701V18.4451C6.10352e-05 22.2098 3.06293 25.2727 6.82781 25.2727H18.3959C22.1606 25.2727 25.2235 22.2098 25.2235 18.4451V6.87701C25.2235 3.11212 22.1606 0.0492554 18.3957 0.0492554V0.0492554ZM23.7448 18.4451C23.7448 21.3944 21.3453 23.794 18.3957 23.794H6.82781C3.87829 23.794 1.47877 21.3944 1.47877 18.4451V6.87701C1.47877 3.92749 3.87829 1.52796 6.82781 1.52796H18.3959C21.3453 1.52796 23.7448 3.92749 23.7448 6.87701V18.4451Z" fill="white"/>
<path d="M12.6117 5.76414C8.80869 5.76414 5.71484 8.85799 5.71484 12.661C5.71484 16.464 8.80869 19.5578 12.6117 19.5578C16.4147 19.5578 19.5085 16.464 19.5085 12.661C19.5085 8.85799 16.4147 5.76414 12.6117 5.76414V5.76414ZM12.6117 18.0791C9.62425 18.0791 7.19355 15.6486 7.19355 12.661C7.19355 9.67354 9.62425 7.24284 12.6117 7.24284C15.5993 7.24284 18.0298 9.67354 18.0298 12.661C18.0298 15.6486 15.5993 18.0791 12.6117 18.0791V18.0791Z" fill="white"/>
<path d="M19.6735 3.31477C18.5496 3.31477 17.6356 4.22905 17.6356 5.3527C17.6356 6.47655 18.5496 7.39083 19.6735 7.39083C20.7973 7.39083 21.7116 6.47655 21.7116 5.3527C21.7116 4.22885 20.7973 3.31477 19.6735 3.31477ZM19.6735 5.91193C19.3652 5.91193 19.1143 5.66099 19.1143 5.3527C19.1143 5.04422 19.3652 4.79347 19.6735 4.79347C19.982 4.79347 20.2329 5.04422 20.2329 5.3527C20.2329 5.66099 19.982 5.91193 19.6735 5.91193Z" fill="white"/>
</svg>
